<?xml version="1.0" standalone="no"?>
<!DOCTYPE svg PUBLIC "-//W3C//DTD SVG 20010904//EN"
 "http://www.w3.org/TR/2001/REC-SVG-20010904/DTD/svg10.dtd">
<svg version="1.0" xmlns="http://www.w3.org/2000/svg"
 width="512.000000pt" height="512.000000pt" viewBox="0 0 512.000000 512.000000"
 preserveAspectRatio="xMidYMid meet">
<metadata>
Created by potrace 1.14, written by Peter Selinger 2001-2017
</metadata>
<g transform="translate(0.000000,512.000000) scale(0.100000,-0.100000)"
fill="#000000" stroke="none">
<path d="M2647 4540 c-4 -35 -7 -328 -7 -651 l0 -589 28 -7 c34 -10 151 -10
175 -1 15 7 17 23 17 146 0 76 3 187 7 246 l6 108 101 -4 101 -3 6 30 c12 55
10 250 -3 263 -7 7 -32 12 -57 12 -26 0 -70 3 -98 6 l-53 7 0 90 0 90 108 -8
c187 -13 165 -19 175 50 12 87 5 224 -11 234 -17 10 -210 30 -368 38 l-121 6
-6 -63z m318 29 c133 -13 166 -19 159 -30 -3 -5 -20 -7 -37 -5 -49 8 -113 15
-207 21 -47 3 -111 8 -142 10 l-58 5 -1 -313 c-1 -171 -5 -451 -8 -622 -6
-273 -7 -234 -9 323 l-2 634 103 -7 c56 -3 147 -11 202 -16z m88 -498 c5 -1 5
-5 2 -11 -6 -10 -128 -4 -205 9 -3 1 0 5 7 9 9 6 112 2 196 -7z"/>
<path d="M2178 4238 l-38 -10 0 -153 c0 -172 3 -165 -79 -165 l-48 0 -6 68
c-4 37 -7 104 -7 149 l0 81 -31 7 c-37 8 -111 -2 -156 -20 l-33 -14 5 -103 c3
-57 10 -258 16 -447 5 -189 12 -348 15 -352 7 -12 147 -11 179 1 l27 10 -3
163 -4 162 65 3 65 3 3 -158 c2 -87 8 -162 13 -167 15 -17 112 -24 154 -12
l40 12 0 466 c0 257 -4 470 -8 474 -12 13 -128 14 -169 2z m139 -8 c8 0 12 -4
8 -9 -3 -5 -30 -10 -60 -10 -100 0 -95 9 -95 -166 0 -85 -3 -156 -7 -158 -18
-10 -173 -18 -173 -8 0 8 39 15 135 23 l30 3 -4 157 -4 157 39 6 c22 4 44 8
49 10 6 2 23 2 39 0 16 -3 35 -5 43 -5z m-341 -39 c-3 -4 -34 -11 -70 -13 -35
-3 -70 -9 -76 -13 -13 -8 -10 -269 7 -699 4 -105 3 -157 -4 -153 -6 4 -13 118
-17 284 -3 153 -9 346 -13 429 l-6 150 34 11 c41 13 152 16 145 4z m203 -718
c-1 -113 -4 -145 -10 -113 -15 89 -11 270 8 270 2 0 2 -71 2 -157z"/>
<path d="M3193 4203 c-8 -6 -15 -142 -23 -461 -7 -249 -11 -454 -9 -456 4 -3
48 -6 300 -22 l107 -7 5 29 c7 32 10 114 8 186 l-1 46 -67 7 c-38 3 -83 8
-102 11 l-33 5 6 212 c4 117 9 258 12 315 l6 102 -39 16 c-43 19 -152 29 -170
17z m145 -24 c50 -16 29 -28 -25 -14 -26 7 -55 11 -63 9 -8 -1 -20 -3 -26 -3
-8 -1 -13 -91 -18 -298 -8 -366 -17 -564 -25 -559 -4 3 12 778 18 863 2 24 66
25 139 2z m160 -665 c34 -4 59 -11 56 -16 -7 -11 -175 0 -188 13 -12 11 45 12
132 3z"/>
<path d="M1465 4136 c-108 -50 -175 -165 -175 -299 0 -147 43 -210 175 -256
84 -30 104 -52 69 -78 -24 -18 -106 -17 -151 2 -19 8 -39 15 -43 15 -12 0 -30
-84 -37 -169 -7 -88 -6 -88 102 -111 140 -29 261 25 323 144 21 42 27 68 30
147 8 175 -38 262 -156 294 -82 23 -102 33 -102 50 0 29 44 39 107 26 32 -7
65 -13 73 -14 16 -2 35 70 46 175 l7 68 -36 15 c-57 24 -172 20 -232 -9z m228
-2 c29 -11 -1 -23 -34 -14 -46 14 -142 4 -185 -18 -97 -49 -149 -147 -149
-279 0 -52 -4 -78 -9 -72 -6 5 -10 46 -10 92 0 63 6 94 23 132 35 78 102 140
181 166 28 9 155 5 183 -7z m-112 -318 c31 -9 67 -25 80 -36 l24 -20 -55 20
c-30 10 -74 24 -97 30 -24 6 -43 15 -43 21 0 6 8 8 18 5 9 -2 42 -12 73 -20z
m-1 -301 c0 -38 -41 -59 -114 -58 -34 0 -72 5 -83 12 -12 6 -24 8 -27 3 -2 -4
-9 -43 -15 -86 -13 -92 -21 -109 -21 -44 0 43 16 147 24 155 2 2 16 -1 32 -7
37 -14 137 -15 162 -1 12 6 24 20 27 31 9 27 15 25 15 -5z"/>
<path d="M587 4106 c-132 -55 -243 -167 -317 -321 -58 -121 -80 -205 -80 -311
0 -156 48 -245 162 -303 60 -30 77 -34 146 -34 84 0 173 22 235 56 44 25 47
44 16 143 -30 98 -30 98 -100 62 -66 -35 -141 -46 -178 -26 -51 27 -66 72 -66
193 0 90 4 118 21 156 44 96 120 155 214 166 l49 6 16 68 c8 37 15 91 15 118
l0 51 -37 0 c-21 0 -64 -11 -96 -24z m113 5 c0 -10 -24 -21 -48 -21 -37 0
-147 -63 -204 -117 -142 -135 -235 -353 -226 -532 2 -45 0 -67 -7 -60 -15 15
-10 178 9 249 47 184 177 364 317 440 71 38 159 61 159 41z m4 -716 c-3 -8
-31 -26 -61 -40 -67 -32 -148 -37 -188 -11 -30 20 -27 33 3 17 41 -22 126 -13
183 18 63 34 70 36 63 16z"/>
<path d="M3754 4077 c-16 -8 -47 -34 -67 -57 -71 -84 -103 -220 -94 -410 8
-196 63 -312 171 -365 111 -54 234 -31 312 58 l36 42 -7 -45 c-19 -116 -88
-231 -191 -314 -202 -165 -587 -357 -659 -330 -8 3 -12 11 -8 18 3 6 -4 2 -17
-9 -13 -11 -20 -14 -16 -7 9 15 -6 16 -22 0 -9 -9 -13 -7 -18 6 -6 15 -7 15
-20 -1 -13 -17 -14 -17 -7 2 6 17 4 18 -8 8 -12 -10 -20 -9 -37 2 -15 11 -23
12 -28 4 -5 -8 -3 -9 6 -4 9 5 11 4 6 -4 -6 -9 -11 -9 -21 -1 -10 8 -14 7 -18
-2 -4 -8 -6 -9 -6 -1 -2 32 217 181 391 266 91 44 128 67 128 80 0 28 -24 21
-163 -49 -146 -73 -256 -142 -365 -229 -76 -61 -105 -76 -94 -47 5 14 3 15
-10 4 -12 -10 -17 -10 -27 1 -14 18 -60 15 -71 -3 -8 -13 -10 -13 -10 -1 0 21
47 99 101 166 49 60 94 101 137 124 23 12 29 35 11 47 -16 10 -109 -58 -160
-118 -25 -29 -70 -88 -99 -130 -48 -69 -80 -97 -80 -69 0 5 -16 7 -35 4 -22
-3 -35 0 -35 7 0 6 -5 8 -10 5 -6 -4 -44 -1 -85 6 l-75 12 -1 73 c-1 41 -3 79
-4 84 -1 6 -4 103 -6 218 -2 145 -4 186 -9 137 -6 -64 -7 -66 -10 -25 -3 25
-7 -72 -10 -215 -5 -252 -6 -260 -25 -260 -21 0 -45 -16 -39 -26 2 -3 -8 -5
-22 -5 -14 1 -35 13 -46 26 -11 14 -17 19 -13 13 3 -7 1 -13 -4 -13 -6 0 -11
6 -11 13 0 8 -4 7 -10 -3 -9 -13 -10 -13 -10 0 0 13 -1 13 -11 0 -9 -12 -10
-11 -6 8 3 12 1 20 -4 16 -5 -3 -9 -13 -9 -22 0 -14 -2 -15 -9 -2 -6 8 -7 18
-4 24 3 5 1 6 -6 2 -6 -4 -8 -13 -4 -19 4 -7 -2 -5 -12 3 -10 8 -16 10 -12 4
3 -6 0 -11 -8 -11 -8 0 -11 5 -8 10 4 6 0 8 -11 4 -12 -5 -24 6 -46 41 -40 64
-56 162 -42 261 9 61 8 77 -4 88 -8 8 -14 10 -14 4 0 -5 4 -12 9 -16 6 -3 6
-18 1 -35 -5 -17 -8 -32 -7 -34 1 -3 -1 -7 -4 -11 -4 -3 -5 14 -3 37 l3 43
-10 -40 c-6 -22 -9 -85 -7 -140 3 -93 6 -107 42 -181 l39 -80 46 7 c110 19
149 21 156 8 6 -9 2 -11 -13 -7 -14 4 -20 2 -15 -5 4 -6 0 -8 -10 -4 -10 3
-17 3 -17 -2 0 -5 30 -6 68 -4 51 4 118 -5 287 -37 232 -43 211 -36 420 -144
17 -9 30 -19 30 -23 0 -5 4 -14 8 -21 5 -7 -15 1 -43 18 -28 16 -57 30 -64 30
-7 0 -105 23 -217 51 -201 50 -206 51 -319 45 -63 -3 -118 -6 -122 -6 -5 0 -8
-7 -8 -15 0 -12 20 -15 118 -16 139 -1 111 4 347 -59 143 -38 205 -60 252 -88
34 -21 56 -40 50 -44 -15 -9 -18 -40 -4 -35 7 3 11 9 10 14 -1 5 4 10 12 10
10 0 10 -5 -3 -22 -16 -21 -19 -21 -52 -7 -19 8 -53 23 -75 35 -55 28 -587
129 -664 126 -33 -2 -34 -2 -6 -6 17 -2 37 -7 45 -10 8 -3 24 -7 35 -9 39 -6
55 -10 62 -18 4 -5 -8 -6 -27 -2 -19 3 -73 9 -120 12 l-85 6 -32 -46 c-33 -47
-40 -62 -25 -52 5 3 46 7 91 10 45 3 89 10 97 17 11 9 14 8 14 -3 0 -11 17
-15 74 -16 144 -3 359 -58 464 -119 l43 -25 -6 28 c-5 22 -4 25 4 14 10 -13
11 -13 12 0 0 10 3 8 9 -5 5 -11 9 -14 9 -6 1 11 4 11 16 1 8 -7 15 -9 15 -5
0 5 10 0 22 -11 l22 -19 -18 28 c-22 35 -16 43 19 25 16 -9 54 -60 99 -134 65
-107 79 -124 143 -169 68 -48 72 -53 103 -132 31 -78 37 -86 123 -160 171
-147 338 -352 413 -505 30 -61 28 -60 112 -61 21 -1 32 -6 32 -15 0 -8 10 -31
21 -52 l22 -38 -25 -33 c-41 -56 -41 -56 3 -104 l42 -45 -53 0 c-36 0 -83 -11
-149 -36 -184 -69 -397 -112 -384 -78 5 13 7 13 14 2 7 -10 9 -9 9 5 0 10 3
16 8 14 4 -3 8 7 9 21 1 26 1 26 -11 5 l-11 -23 -14 23 c-13 20 -13 21 2 8 19
-15 23 -1 5 17 -7 7 -8 12 -4 12 5 0 3 6 -3 14 -10 12 -3 26 37 75 61 76 87
124 79 145 -11 27 -22 19 -71 -54 -91 -133 -327 -330 -396 -330 -17 0 -151
-20 -298 -44 -384 -64 -481 -71 -907 -71 -244 1 -287 3 -335 19 -88 29 -277
132 -362 197 -74 57 -108 68 -108 37 0 -13 79 -79 163 -137 26 -17 47 -34 47
-37 0 -3 -4 -3 -9 1 -5 3 -12 1 -16 -5 -4 -6 -12 -7 -18 -3 -7 4 -6 0 2 -10 7
-9 19 -17 25 -17 6 0 4 5 -4 11 -10 7 -11 9 -2 7 27 -7 11 -23 -25 -26 -58 -5
-144 16 -225 57 -60 30 -77 44 -97 80 l-24 43 20 42 c12 23 33 57 49 75 27 32
30 33 81 28 29 -3 55 -2 58 3 3 4 -10 33 -29 64 -79 131 -68 238 38 370 14 18
17 17 67 -23 29 -23 57 -40 63 -38 26 9 12 35 -39 75 l-55 43 0 74 c0 80 19
183 51 285 25 75 137 315 170 363 17 23 18 28 5 18 -9 -8 -24 -28 -32 -44 -9
-16 -18 -27 -21 -24 -2 3 0 15 7 26 6 12 8 21 6 21 -9 0 -36 -57 -30 -63 6 -5
-33 -87 -41 -87 -3 0 4 18 15 40 11 22 18 40 15 40 -8 0 -72 -131 -106 -216
-46 -116 -79 -267 -79 -358 0 -76 -1 -80 -36 -119 -20 -22 -48 -65 -63 -96
-34 -74 -36 -183 -4 -253 l21 -47 -29 -6 c-33 -7 -92 -71 -129 -139 l-25 -47
35 -66 c31 -58 42 -70 90 -95 98 -49 170 -69 295 -79 66 -5 163 -14 215 -19
128 -11 849 -5 978 9 57 6 201 28 320 47 241 40 352 55 397 55 51 -1 284 36
408 64 124 28 235 61 302 92 26 11 67 18 115 19 41 1 81 2 88 3 23 2 12 27
-39 84 l-51 57 32 40 31 39 -25 44 c-14 24 -26 56 -26 70 0 31 -21 44 -70 42
-50 -2 -63 7 -95 67 -85 160 -245 345 -448 519 -16 13 -45 62 -66 109 -36 81
-41 87 -116 141 -71 51 -85 67 -143 163 l-64 107 41 44 c23 25 41 47 41 49 0
3 -7 12 -15 20 -13 13 -14 22 -5 57 13 47 12 49 -43 70 l-42 17 50 7 c81 12
253 63 345 103 214 91 468 260 551 364 88 112 142 277 110 337 -9 16 -8 35 5
83 24 88 24 273 0 353 -38 126 -100 211 -188 256 -54 28 -160 36 -204 16z
m152 -12 c27 -8 65 -28 84 -44 l35 -31 -61 30 c-112 55 -185 49 -247 -19 -44
-48 -72 -125 -87 -231 -12 -88 -12 -213 1 -269 4 -20 4 -30 -2 -24 -19 19 -29
167 -19 269 13 125 41 210 87 264 59 69 114 83 209 55z m-5 -235 c39 -21 53
-68 53 -175 -1 -79 -5 -110 -22 -148 -20 -45 -24 -48 -53 -45 -21 2 -39 13
-53 31 -19 26 -21 41 -19 142 3 165 33 227 94 195z m86 -215 c-6 -99 -29 -161
-69 -181 -33 -17 -83 -11 -92 11 -4 11 1 12 23 4 40 -14 75 3 97 48 13 28 19
68 23 153 3 96 6 109 14 80 5 -19 7 -71 4 -115z m-1097 -921 c0 -8 -19 -13
-24 -6 -3 5 1 9 9 9 8 0 15 -2 15 -3z m-537 -91 c-7 -2 -19 -2 -25 0 -7 3 -2
5 12 5 14 0 19 -2 13 -5z m760 -128 c-3 -9 -8 -14 -10 -11 -3 3 -2 9 2 15 9
16 15 13 8 -4z m-623 -11 c0 -2 -9 -4 -20 -4 -11 0 -20 4 -20 9 0 5 9 7 20 4
11 -3 20 -7 20 -9z"/>
<path d="M3887 3649 c7 -9 10 -19 6 -22 -3 -4 -11 1 -18 10 -7 9 -14 12 -18 6
-3 -5 14 -24 38 -41 38 -27 45 -29 45 -14 0 20 -15 41 -45 62 -18 14 -19 13
-8 -1z m37 -35 c9 -24 7 -31 -5 -11 -6 9 -15 14 -21 11 -7 -4 -8 -2 -4 4 10
17 23 15 30 -4z"/>
<path d="M965 4003 c-22 -9 -71 -36 -109 -61 l-68 -45 4 -62 c5 -59 30 -125
47 -125 5 0 35 16 67 35 67 40 127 47 143 17 9 -17 4 -21 -47 -35 -114 -32
-196 -109 -223 -212 -16 -56 -6 -155 21 -210 41 -86 141 -125 267 -105 69 11
186 54 201 73 14 20 -14 527 -33 594 -19 67 -54 117 -95 138 -37 19 -124 18
-175 -2z m161 -9 c45 -21 44 -37 -1 -18 -19 7 -46 14 -59 14 -42 0 -118 -30
-184 -74 -63 -41 -63 -41 -60 -83 4 -52 -8 -43 -16 12 -7 39 -5 42 36 72 120
85 213 111 284 77z m-38 -260 c-2 -11 -28 -25 -71 -39 -90 -29 -143 -69 -180
-133 -25 -46 -30 -65 -31 -127 -1 -46 -4 -68 -10 -58 -4 8 -6 48 -4 87 3 60 9
82 33 122 37 59 108 109 187 131 32 9 58 20 58 25 0 4 5 8 11 8 6 0 9 -7 7
-16z m15 -250 c3 -39 2 -76 -2 -83 -8 -13 -64 -31 -97 -31 -11 0 -29 7 -40 15
-18 14 -17 15 18 9 20 -3 53 -1 73 6 l36 12 -1 66 c-2 78 -1 87 4 81 2 -2 6
-36 9 -75z m-35 -1 c-3 -67 -4 -68 -32 -71 -46 -6 -73 6 -80 32 -13 52 33 105
92 106 22 0 23 -3 20 -67z"/>
<path d="M4174 3966 c-3 -9 23 -186 58 -393 63 -375 63 -378 90 -391 28 -13
151 -22 162 -11 4 3 22 64 42 135 19 71 36 130 38 131 1 2 14 -61 27 -139 24
-138 25 -143 54 -157 16 -8 59 -16 95 -19 l67 -4 51 148 c27 82 66 193 86 246
l35 98 -42 28 c-76 52 -157 87 -157 67 0 -10 -42 -201 -47 -215 -3 -8 -16 50
-29 129 -14 90 -29 150 -39 161 -21 23 -131 72 -153 68 -13 -2 -25 -37 -54
-148 -20 -80 -37 -141 -37 -137 -1 4 -8 70 -16 145 -24 214 -17 196 -83 225
-31 14 -68 28 -82 32 -14 4 -33 9 -43 11 -10 3 -20 -1 -23 -10z m102 -30 c73
-27 101 -46 68 -46 -11 0 -24 4 -29 9 -12 10 -107 42 -112 38 -2 -2 21 -150
52 -328 30 -178 57 -340 60 -359 5 -35 5 -35 -5 -5 -5 17 -35 177 -65 357 -31
180 -58 335 -61 343 -9 21 14 19 92 -9z m337 -142 c20 -10 37 -21 37 -26 0
-12 -7 -10 -58 17 -59 32 -70 31 -78 -2 -33 -144 -77 -310 -85 -318 -6 -5 -9
-5 -9 2 0 11 76 332 85 361 5 13 22 8 108 -34z m249 -130 c67 -38 84 -51 77
-58 -2 -3 -31 11 -63 31 -43 26 -60 33 -66 23 -4 -6 -18 -60 -30 -118 -27
-123 -36 -152 -48 -152 -5 0 6 62 24 138 19 75 34 145 34 155 0 9 2 17 4 17 2
0 33 -16 68 -36z m-247 -335 c28 -162 27 -154 20 -147 -5 5 -55 270 -55 292 0
5 2 7 5 4 3 -3 17 -70 30 -149z"/>
<path d="M2466 3347 c3 -10 9 -15 12 -12 3 3 0 11 -7 18 -10 9 -11 8 -5 -6z"/>
<path d="M2290 3235 c-14 -16 -12 -41 21 -267 11 -75 21 -155 23 -178 2 -28 9
-46 21 -53 13 -7 16 -6 11 2 -4 6 -1 11 8 11 9 0 16 2 16 5 0 2 -19 109 -41
237 -23 128 -42 239 -42 246 0 15 -2 15 -17 -3z m13 -55 c4 -30 3 -38 -3 -25
-8 19 -14 83 -6 74 2 -2 6 -24 9 -49z"/>
<path d="M2096 3203 c-6 -14 -5 -15 5 -6 7 7 10 15 7 18 -3 3 -9 -2 -12 -12z"/>
<path d="M3007 2430 c10 -11 10 -17 0 -29 -11 -14 -10 -14 6 -2 17 13 18 13
15 -3 -2 -12 4 -20 15 -22 11 -1 16 0 13 3 -3 4 -1 12 4 18 9 11 -4 24 -30 29
-3 1 -12 5 -20 10 -12 7 -13 6 -3 -4z m37 -40 c-6 -6 -10 -3 -10 10 0 13 4 16
10 10 7 -7 7 -13 0 -20z"/>
<path d="M1863 2355 c0 -8 4 -12 9 -9 5 3 6 10 3 15 -9 13 -12 11 -12 -6z"/>
<path d="M1785 2310 c-3 -6 1 -7 9 -4 18 7 21 14 7 14 -6 0 -13 -4 -16 -10z"/>
<path d="M1745 2290 c-3 -6 1 -7 9 -4 18 7 21 14 7 14 -6 0 -13 -4 -16 -10z"/>
<path d="M1693 2266 c-13 -6 -23 -14 -23 -19 0 -7 17 0 50 23 20 13 1 11 -27
-4z"/>
<path d="M1630 2235 c-14 -8 -20 -14 -14 -15 5 0 19 7 30 15 24 18 16 19 -16
0z"/>
<path d="M1585 2230 c-3 -5 -3 -10 1 -10 4 0 -1 -7 -12 -16 -18 -15 -18 -15 0
-6 11 5 21 17 22 26 3 18 -2 21 -11 6z"/>
<path d="M1536 2197 c3 -10 9 -15 12 -12 3 3 0 11 -7 18 -10 9 -11 8 -5 -6z"/>
<path d="M1516 2187 c3 -10 9 -15 12 -12 3 3 0 11 -7 18 -10 9 -11 8 -5 -6z"/>
<path d="M1496 2177 c3 -10 9 -15 12 -12 3 3 0 11 -7 18 -10 9 -11 8 -5 -6z"/>
<path d="M1449 2163 c-13 -16 -12 -17 4 -4 9 7 17 15 17 17 0 8 -8 3 -21 -13z"/>
<path d="M2856 1797 c3 -10 9 -15 12 -12 3 3 0 11 -7 18 -10 9 -11 8 -5 -6z"/>
<path d="M2845 1757 c3 -15 19 -65 36 -112 24 -66 35 -85 50 -85 26 0 24 10
-21 120 -38 93 -50 109 -30 41 12 -43 0 -31 -23 22 -12 28 -16 33 -12 14z"/>
<path d="M2591 1754 c0 -11 3 -14 6 -6 3 7 2 16 -1 19 -3 4 -6 -2 -5 -13z"/>
<path d="M2620 1733 c0 -22 -2 -25 -10 -13 -8 13 -10 12 -10 -2 0 -10 7 -18
15 -18 10 0 15 10 15 30 0 17 -2 30 -5 30 -3 0 -5 -12 -5 -27z"/>
<path d="M3271 1548 c-89 -191 -140 -403 -147 -613 -2 -66 -7 -133 -10 -150
-8 -39 -5 -35 46 60 23 44 47 87 54 95 6 9 1 6 -10 -6 -12 -13 -25 -20 -30
-16 -4 4 -4 2 0 -5 3 -6 2 -14 -3 -18 -6 -3 -8 5 -6 17 2 13 9 68 15 123 18
178 57 331 121 480 43 100 46 115 24 115 -10 0 -30 -31 -54 -82z"/>
<path d="M2120 1566 c3 -2 30 -17 59 -33 67 -35 92 -68 96 -125 3 -51 -12
-157 -25 -173 -4 -5 -9 -14 -9 -20 -3 -27 -14 -45 -23 -39 -6 4 -8 2 -5 -3 9
-14 -38 -67 -52 -59 -7 5 -10 2 -9 -6 2 -7 -5 -12 -14 -12 -10 1 -16 -2 -13
-6 5 -9 -40 -30 -76 -34 -53 -7 -71 -27 -78 -87 -1 -8 -7 -7 -18 2 -11 10 -14
10 -9 2 4 -8 1 -13 -9 -13 -10 0 -13 5 -9 12 4 7 3 8 -4 4 -24 -14 -11 -26 28
-26 22 0 39 3 39 8 -8 48 0 57 76 81 138 43 211 142 222 300 7 95 -7 143 -50
175 -28 20 -131 67 -117 52z"/>
<path d="M1984 1341 c11 -12 16 -33 14 -63 -2 -26 -6 -44 -9 -42 -3 2 -17 -8
-30 -22 -17 -18 -19 -23 -6 -18 9 3 17 10 17 14 0 4 8 10 18 12 25 7 44 91 27
115 -7 9 -20 18 -29 19 -16 2 -16 1 -2 -15z"/>
<path d="M2223 1255 c0 -8 4 -12 9 -9 5 3 6 10 3 15 -9 13 -12 11 -12 -6z"/>
<path d="M2159 1223 c-13 -16 -12 -17 4 -4 16 13 21 21 13 21 -2 0 -10 -8 -17
-17z"/>
<path d="M3189 998 c-4 -12 -5 -57 0 -53 6 6 10 55 4 55 -1 0 -3 -1 -4 -2z"/>
<path d="M3544 868 c-3 -5 -1 -15 5 -22 6 -7 9 -15 6 -18 -3 -2 1 -5 8 -5 7 0
13 12 12 27 0 26 -20 37 -31 18z m20 -14 c3 -8 2 -12 -4 -9 -6 3 -10 10 -10
16 0 14 7 11 14 -7z"/>
<path d="M4661 484 c-169 -127 -299 -175 -591 -220 -25 -4 -682 -9 -1460 -11
-778 -2 -1417 -7 -1420 -9 -3 -3 5 -14 17 -24 12 -9 20 -20 18 -22 -3 -3 2 -5
12 -5 12 0 8 7 -13 25 -18 15 -21 20 -8 13 12 -6 25 -7 29 -3 5 4 5 2 1 -5 -3
-6 -2 -14 4 -18 5 -3 10 -14 10 -24 0 -22 33 -54 45 -44 4 5 5 -1 1 -12 -4
-11 -4 -16 0 -12 9 9 35 -13 28 -24 -3 -5 2 -6 11 -2 13 5 14 7 3 14 -11 7
-11 9 1 9 11 0 11 3 0 18 -13 15 -12 16 3 3 10 -7 15 -17 12 -22 -3 -5 1 -9 8
-9 9 -1 9 -4 -3 -13 -14 -11 -12 -15 12 -35 20 -16 30 -19 35 -11 5 8 3 9 -6
4 -9 -6 -11 -4 -5 5 6 9 4 11 -5 5 -9 -6 -11 -4 -6 4 6 9 12 9 25 -3 10 -9 20
-14 23 -11 3 3 11 -1 17 -9 9 -11 9 -16 0 -22 -7 -4 -9 -3 -5 4 3 6 1 14 -5
17 -7 5 -10 0 -7 -11 4 -21 43 -27 43 -7 0 6 3 15 7 19 4 3 5 -3 3 -15 -3 -15
0 -21 8 -18 7 3 11 10 9 16 -1 7 2 10 8 6 6 -3 8 -11 5 -16 -4 -5 6 -9 20 -9
18 0 24 4 19 13 -6 9 -4 9 7 0 17 -17 32 -17 23 0 -6 9 -4 9 8 -1 22 -17 2372
-11 2488 7 342 53 514 139 734 369 l39 41 -44 43 c-24 24 -48 42 -52 40 -5 -1
-6 2 -3 7 3 5 0 13 -7 19 -9 7 -35 -8 -96 -54z m-3371 -314 c0 12 3 11 11 -3
6 -9 16 -14 22 -11 7 4 9 4 5 -1 -4 -4 -3 -17 3 -29 8 -17 6 -16 -10 4 -11 14
-21 21 -21 16 0 -5 -7 -3 -15 4 -8 7 -15 20 -14 29 0 12 2 11 9 -4 6 -14 9
-15 10 -5z m104 -95 c-4 -8 -11 -12 -16 -9 -6 4 -5 10 3 15 19 12 19 11 13 -6z
m37 -2 c13 -16 12 -17 -3 -4 -17 13 -22 21 -14 21 2 0 10 -8 17 -17z m40 -20
c13 -16 12 -17 -3 -4 -17 13 -22 21 -14 21 2 0 10 -8 17 -17z"/>
<path d="M1421 24 c0 -11 3 -14 6 -6 3 7 2 16 -1 19 -3 4 -6 -2 -5 -13z"/>
</g>
</svg>
